<svg width="847" height="500" xmlns="http://www.w3.org/2000/svg" version="1.1"><g><g class="x axis" transform="translate(0,480)" style="stroke-width: 1px; font-size: 10px; font-family: Arial, Helvetica;"><g class="tick" transform="translate(0,0)" style="opacity: 1;"><line y2="-480" x2="0" style="shape-rendering: crispEdges; fill: none; stroke: rgb(204, 204, 204);"></line><text y="3" x="0" dy=".71em" style="text-anchor: middle;">2,008.0</text></g><g class="tick" transform="translate(70.58333333333333,0)" style="opacity: 1;"><line y2="-480" x2="0" style="shape-rendering: crispEdges; fill: none; stroke: rgb(204, 204, 204);"></line><text y="3" x="0" dy=".71em" style="text-anchor: middle;">2,008.5</text></g><g class="tick" transform="translate(141.16666666666666,0)" style="opacity: 1;"><line y2="-480" x2="0" style="shape-rendering: crispEdges; fill: none; stroke: rgb(204, 204, 204);"></line><text y="3" x="0" dy=".71em" style="text-anchor: middle;">2,009.0</text></g><g class="tick" transform="translate(211.75,0)" style="opacity: 1;"><line y2="-480" x2="0" style="shape-rendering: crispEdges; fill: none; stroke: rgb(204, 204, 204);"></line><text y="3" x="0" dy=".71em" style="text-anchor: middle;">2,009.5</text></g><g class="tick" transform="translate(282.3333333333333,0)" style="opacity: 1;"><line y2="-480" x2="0" style="shape-rendering: crispEdges; fill: none; stroke: rgb(204, 204, 204);"></line><text y="3" x="0" dy=".71em" style="text-anchor: middle;">2,010.0</text></g><g class="tick" transform="translate(352.91666666666663,0)" style="opacity: 1;"><line y2="-480" x2="0" style="shape-rendering: crispEdges; fill: none; stroke: rgb(204, 204, 204);"></line><text y="3" x="0" dy=".71em" style="text-anchor: middle;">2,010.5</text></g><g class="tick" transform="translate(423.5,0)" style="opacity: 1;"><line y2="-480" x2="0" style="shape-rendering: crispEdges; fill: none; stroke: rgb(204, 204, 204);"></line><text y="3" x="0" dy=".71em" style="text-anchor: middle;">2,011.0</text></g><g class="tick" transform="translate(494.08333333333326,0)" style="opacity: 1;"><line y2="-480" x2="0" style="shape-rendering: crispEdges; fill: none; stroke: rgb(204, 204, 204);"></line><text y="3" x="0" dy=".71em" style="text-anchor: middle;">2,011.5</text></g><g class="tick" transform="translate(564.6666666666666,0)" style="opacity: 1;"><line y2="-480" x2="0" style="shape-rendering: crispEdges; fill: none; stroke: rgb(204, 204, 204);"></line><text y="3" x="0" dy=".71em" style="text-anchor: middle;">2,012.0</text></g><g class="tick" transform="translate(635.25,0)" style="opacity: 1;"><line y2="-480" x2="0" style="shape-rendering: crispEdges; fill: none; stroke: rgb(204, 204, 204);"></line><text y="3" x="0" dy=".71em" style="text-anchor: middle;">2,012.5</text></g><g class="tick" transform="translate(705.8333333333333,0)" style="opacity: 1;"><line y2="-480" x2="0" style="shape-rendering: crispEdges; fill: none; stroke: rgb(204, 204, 204);"></line><text y="3" x="0" dy=".71em" style="text-anchor: middle;">2,013.0</text></g><g class="tick" transform="translate(776.4166666666666,0)" style="opacity: 1;"><line y2="-480" x2="0" style="shape-rendering: crispEdges; fill: none; stroke: rgb(204, 204, 204);"></line><text y="3" x="0" dy=".71em" style="text-anchor: middle;">2,013.5</text></g><g class="tick" transform="translate(847,0)" style="opacity: 1;"><line y2="-480" x2="0" style="shape-rendering: crispEdges; fill: none; stroke: rgb(204, 204, 204);"></line><text y="3" x="0" dy=".71em" style="text-anchor: middle;">2,014.0</text></g><path class="domain" d="M0,-480V0H847V-480" style="shape-rendering: crispEdges; fill: none; stroke: rgb(204, 204, 204);"></path></g><path class="layer" d="M0,235.81388741272355L282.3333333333333,311.6033610969341L423.5,296.52199077118973L564.6666666666666,332.08248051900216L705.8333333333333,480L847,427.074403994591L847,451.5218066159099L705.8333333333333,480L564.6666666666666,332.08248051900216L423.5,296.52199077118973L282.3333333333333,311.6033610969341L0,244.18611258727645Z" title="Cancer" style="fill: rgb(191, 105, 105);"></path><path class="layer" d="M0,235.81388741272355L282.3333333333333,300.3014885008182L423.5,277.5171659028607L564.6666666666666,269.2832150354893L705.8333333333333,392.6914557211784L847,312.830782344244L847,427.074403994591L705.8333333333333,480L564.6666666666666,332.08248051900216L423.5,296.52199077118973L282.3333333333333,311.6033610969341L0,235.81388741272355Z" title="Diabetes" style="fill: rgb(191, 152, 105);"></path><path class="layer" d="M0,235.81388741272355L282.3333333333333,264.5951477714581L423.5,254.26940338950948L564.6666666666666,227.63676160309802L705.8333333333333,288.96173253287174L847,200.20351789200083L847,312.830782344244L705.8333333333333,392.6914557211784L564.6666666666666,269.2832150354893L423.5,277.5171659028607L282.3333333333333,300.3014885008182L0,235.81388741272355Z" title="Chronic Obstructive Pulmonary Disease" style="fill: rgb(183, 191, 105);"></path><path class="layer" d="M0,235.81388741272355L282.3333333333333,249.94691066364302L423.5,246.60433448912696L564.6666666666666,203.0630810756773L705.8333333333333,266.78733222138624L847,168.02790741724846L847,200.20351789200083L705.8333333333333,288.96173253287174L564.6666666666666,227.63676160309802L423.5,254.26940338950948L282.3333333333333,264.5951477714581L0,235.81388741272355Z" title="Chronic kidney disease" style="fill: rgb(136, 191, 105);"></path><path class="layer" d="M0,235.81388741272355L282.3333333333333,183.51210426345784L423.5,185.96568397901683L564.6666666666666,174.32222964689544L705.8333333333333,133.46311895904915L847,96.66826267909101L847,168.02790741724846L705.8333333333333,266.78733222138624L564.6666666666666,203.0630810756773L423.5,246.60433448912696L282.3333333333333,249.94691066364302L0,235.81388741272355Z" title="Cardiovascular Disease" style="fill: rgb(105, 191, 121);"></path><path class="layer" d="M0,235.81388741272355L282.3333333333333,168.396638903066L423.5,185.96568397901683L564.6666666666666,167.42745597373425L705.8333333333333,93.33200039988003L847,90.70794551108355L847,96.66826267909101L705.8333333333333,133.46311895904915L564.6666666666666,174.32222964689544L423.5,185.96568397901683L282.3333333333333,183.51210426345784L0,235.81388741272355Z" title="Asthma" style="fill: rgb(105, 191, 167);"></path><path class="layer" d="M0,235.81388741272355L282.3333333333333,168.396638903066L423.5,183.47800922881032L564.6666666666666,164.04320809020453L705.8333333333333,78.86055236060764L847,84.93704520222883L847,90.70794551108355L705.8333333333333,93.33200039988003L564.6666666666666,167.42745597373425L423.5,185.96568397901683L282.3333333333333,168.396638903066L0,235.81388741272355Z" title="Alcohol" style="fill: rgb(105, 167, 191);"></path><path class="layer" d="M0,235.81388741272355L282.3333333333333,168.396638903066L423.5,183.47800922881032L564.6666666666666,154.33243711097197L705.8333333333333,58.870759824684114L847,78.13066606333894L847,84.93704520222883L705.8333333333333,78.86055236060764L564.6666666666666,164.04320809020453L423.5,183.47800922881032L282.3333333333333,168.396638903066L0,235.81388741272355Z" title="Immunization" style="fill: rgb(105, 121, 191);"></path><path class="layer" d="M0,235.81388741272355L282.3333333333333,168.396638903066L423.5,183.47800922881032L564.6666666666666,152.65294095981727L705.8333333333333,54.00906043976278L847,76.45116991218424L847,78.13066606333894L705.8333333333333,58.870759824684114L564.6666666666666,154.33243711097197L423.5,183.47800922881032L282.3333333333333,168.396638903066L0,235.81388741272355Z" title="Mental Health" style="fill: rgb(136, 105, 191);"></path><path class="layer" d="M0,235.81388741272355L282.3333333333333,168.396638903066L423.5,183.47800922881032L564.6666666666666,152.36250177578302L705.8333333333333,53.12511509704984L847,75.16313526994537L847,76.45116991218424L705.8333333333333,54.00906043976278L564.6666666666666,152.65294095981727L423.5,183.47800922881032L282.3333333333333,168.396638903066L0,235.81388741272355Z" title="Chronic Kidney Disease" style="fill: rgb(183, 105, 191);"></path><path class="layer" d="M0,235.81388741272355L282.3333333333333,168.396638903066L423.5,183.47800922881032L564.6666666666666,147.91751948099778L705.8333333333333,0L847,28.478193384090105L847,75.16313526994537L705.8333333333333,53.12511509704984L564.6666666666666,152.36250177578302L423.5,183.47800922881032L282.3333333333333,168.396638903066L0,235.81388741272355Z" title="Arthritis" style="fill: rgb(191, 105, 152);"></path><text x="847" y="439.29810530525043" style="font-size: 11px; font-family: Arial, Helvetica;">Cancer</text><text x="847" y="369.9525931694175" style="font-size: 11px; font-family: Arial, Helvetica;">Diabetes</text><text x="847" y="256.51715011812246" style="font-size: 11px; font-family: Arial, Helvetica;">Chronic Obstructive Pulmonary Disease</text><text x="847" y="184.11571265462464" style="font-size: 11px; font-family: Arial, Helvetica;">Chronic kidney disease</text><text x="705.8333333333333" y="200.12522559021767" style="font-size: 11px; font-family: Arial, Helvetica;">Cardiovascular Disease</text><text x="705.8333333333333" y="113.39755967946456" style="font-size: 11px; font-family: Arial, Helvetica;">Asthma</text><text x="705.8333333333333" y="86.09627638024381" style="font-size: 11px; font-family: Arial, Helvetica;">Alcohol</text><text x="705.8333333333333" y="68.8656560926459" style="font-size: 11px; font-family: Arial, Helvetica;">Immunization</text><text x="705.8333333333333" y="56.439910132223474" style="font-size: 11px; font-family: Arial, Helvetica;">Mental Health</text><text x="847" y="75.80715259106483" style="font-size: 11px; font-family: Arial, Helvetica;">Chronic Kidney Disease</text><text x="705.8333333333333" y="26.56255754852492" style="font-size: 11px; font-family: Arial, Helvetica;">Arthritis</text></g></svg>