<?xml version="1.0" encoding="utf-8"?>
<!-- Generator: Adobe Illustrator 19.2.1, SVG Export Plug-In . SVG Version: 6.00 Build 0)  -->
<svg version="1.1" id="Layer_1" xmlns="http://www.w3.org/2000/svg" xmlns:xlink="http://www.w3.org/1999/xlink" x="0px" y="0px"
	 viewBox="0 0 618 384.5" style="enable-background:new 0 0 618 384.5;" xml:space="preserve">
<style type="text/css">
	.st0{fill:#F7F8F9;}
	.st1{fill:#FF6600;}
	.st2{fill:#3397FF;}
	.st3{fill:#66CBCB;}
	.st4{fill:#FFCA00;}
	.st5{fill:#FF66CB;}
	.st6{fill:#00CAFF;}
	.st7{font-family:'DIN-Regular';}
	.st8{font-size:20px;}
	.st9{font-family:'DIN-Medium';}
	.st10{fill:none;}
	.st11{font-size:14px;}
</style>
<rect x="-25.5" y="-32" class="st0" width="852.5" height="501.5"/>
<circle class="st1" cx="342.5" cy="169.5" r="2.2"/>
<circle class="st1" cx="368.4" cy="180.8" r="1.2"/>
<circle class="st1" cx="364.1" cy="171.3" r="1.3"/>
<circle class="st1" cx="353.6" cy="172.4" r="1.3"/>
<circle class="st1" cx="357.7" cy="162.1" r="1.9"/>
<circle class="st1" cx="346" cy="156.8" r="3"/>
<circle class="st1" cx="345.7" cy="182.3" r="3"/>
<circle class="st1" cx="358" cy="182" r="1.3"/>
<circle class="st2" cx="420.9" cy="160.5" r="0.9"/>
<circle class="st2" cx="435.8" cy="124.8" r="1.5"/>
<circle class="st2" cx="411.6" cy="133.9" r="4.3"/>
<circle class="st2" cx="433.6" cy="168.2" r="6"/>
<circle class="st2" cx="403" cy="117.9" r="5.8"/>
<circle class="st2" cx="432.6" cy="187.9" r="5.7"/>
<circle class="st2" cx="429.7" cy="153.8" r="0.9"/>
<circle class="st2" cx="452.8" cy="170.1" r="5.4"/>
<circle class="st2" cx="464.9" cy="155.9" r="5.3"/>
<circle class="st2" cx="435.5" cy="146.1" r="0.7"/>
<circle class="st2" cx="421.9" cy="119.8" r="5.2"/>
<circle class="st2" cx="435.8" cy="108" r="5"/>
<circle class="st2" cx="383.1" cy="146.6" r="6.2"/>
<circle class="st2" cx="391.6" cy="165.6" r="6.6"/>
<circle class="st2" cx="409.2" cy="163.4" r="3.1"/>
<circle class="st2" cx="417" cy="177.5" r="5"/>
<circle class="st2" cx="401" cy="181" r="3.4"/>
<circle class="st2" cx="402" cy="149.1" r="4.9"/>
<circle class="st2" cx="418.4" cy="148.3" r="3.6"/>
<circle class="st2" cx="395.6" cy="133.8" r="3.7"/>
<circle class="st2" cx="446.9" cy="153.1" r="4.7"/>
<circle class="st2" cx="444.5" cy="136" r="4.7"/>
<circle class="st2" cx="427.9" cy="135.9" r="4"/>
<circle class="st2" cx="463.7" cy="136.1" r="6.5"/>
<circle class="st2" cx="452.2" cy="118.5" r="6.5"/>
<circle class="st3" cx="351.7" cy="69.6" r="3.2"/>
<circle class="st3" cx="331.4" cy="91.2" r="3.4"/>
<circle class="st3" cx="320.6" cy="105.5" r="6.5"/>
<circle class="st3" cx="370.3" cy="116" r="6.9"/>
<circle class="st3" cx="384.9" cy="93.3" r="4.8"/>
<circle class="st3" cx="350.9" cy="119.1" r="4.8"/>
<circle class="st3" cx="368.5" cy="66.6" r="5.2"/>
<circle class="st3" cx="355.4" cy="53.3" r="5.5"/>
<circle class="st3" cx="387.2" cy="73.9" r="6.8"/>
<circle class="st3" cx="337.3" cy="58.3" r="5.3"/>
<circle class="st3" cx="337.3" cy="76.2" r="4.6"/>
<circle class="st3" cx="357.5" cy="81.1" r="1.6"/>
<circle class="st3" cx="320.4" cy="79.5" r="4.6"/>
<circle class="st3" cx="339.7" cy="104.9" r="4.6"/>
<circle class="st3" cx="356.3" cy="103.2" r="4.1"/>
<circle class="st3" cx="333.1" cy="121.4" r="5.2"/>
<circle class="st3" cx="347" cy="89.9" r="4.1"/>
<circle class="st3" cx="360.5" cy="91" r="0.7"/>
<circle class="st3" cx="370.3" cy="98.4" r="2.7"/>
<circle class="st3" cx="371" cy="83.7" r="4.1"/>
<circle class="st4" cx="236.4" cy="205.1" r="5.6"/>
<circle class="st4" cx="272.7" cy="172.2" r="1.7"/>
<circle class="st4" cx="280.2" cy="118.2" r="3.2"/>
<circle class="st4" cx="259.3" cy="153.8" r="2.2"/>
<circle class="st4" cx="312.1" cy="164.1" r="5"/>
<circle class="st4" cx="242.5" cy="187.5" r="5"/>
<circle class="st4" cx="300" cy="185.2" r="5.6"/>
<circle class="st4" cx="232.8" cy="176.3" r="1.8"/>
<circle class="st4" cx="280.9" cy="185" r="5.5"/>
<circle class="st4" cx="317.9" cy="180.9" r="4.9"/>
<circle class="st4" cx="306.6" cy="135.7" r="4.9"/>
<circle class="st4" cx="284.5" cy="169.6" r="2.4"/>
<circle class="st4" cx="293.3" cy="143" r="2.4"/>
<circle class="st4" cx="253" cy="138" r="5.4"/>
<circle class="st4" cx="261.3" cy="183.4" r="6.3"/>
<circle class="st4" cx="290.6" cy="156.8" r="3.7"/>
<circle class="st4" cx="230.1" cy="163.1" r="3.7"/>
<circle class="st4" cx="262.8" cy="165.7" r="2.2"/>
<circle class="st4" cx="319.2" cy="147.9" r="4.7"/>
<circle class="st4" cx="290.2" cy="202.1" r="6.1"/>
<circle class="st4" cx="297.5" cy="169.3" r="2.6"/>
<circle class="st4" cx="295.1" cy="122.9" r="4.4"/>
<circle class="st4" cx="275.1" cy="158.8" r="3.9"/>
<circle class="st4" cx="303.6" cy="150.9" r="2.7"/>
<circle class="st4" cx="234.9" cy="131" r="5.9"/>
<circle class="st4" cx="266" cy="108.5" r="5.9"/>
<circle class="st4" cx="267" cy="126.9" r="4.5"/>
<circle class="st4" cx="241.1" cy="151.3" r="4.5"/>
<circle class="st4" cx="282.5" cy="147" r="1.1"/>
<circle class="st4" cx="246.9" cy="168.9" r="6.1"/>
<circle class="st4" cx="250.5" cy="119.6" r="5.2"/>
<circle class="st4" cx="282.4" cy="133.4" r="4.2"/>
<circle class="st4" cx="269.6" cy="143.7" r="4.2"/>
<circle class="st4" cx="223.5" cy="147" r="5.7"/>
<circle class="st4" cx="270.5" cy="201" r="5.7"/>
<circle class="st4" cx="253.1" cy="200.4" r="3.8"/>
<circle class="st5" cx="349" cy="319.2" r="2.4"/>
<circle class="st5" cx="285.7" cy="304.1" r="4.3"/>
<circle class="st5" cx="425.1" cy="327.7" r="4.3"/>
<circle class="st5" cx="289" cy="329.7" r="0.7"/>
<circle class="st5" cx="373.6" cy="223.8" r="4.2"/>
<circle class="st5" cx="316.6" cy="321.4" r="4.4"/>
<circle class="st5" cx="324.8" cy="306.4" r="4.4"/>
<circle class="st5" cx="293.7" cy="289.9" r="4.1"/>
<circle class="st5" cx="395.1" cy="318.7" r="4.5"/>
<circle class="st5" cx="375.5" cy="339.9" r="4.5"/>
<circle class="st5" cx="399.7" cy="302.9" r="4"/>
<circle class="st5" cx="325.7" cy="335.6" r="4.5"/>
<circle class="st5" cx="298.6" cy="338.1" r="4"/>
<circle class="st5" cx="332.9" cy="320.7" r="4"/>
<circle class="st5" cx="389.1" cy="349" r="3.9"/>
<circle class="st5" cx="408.1" cy="233.8" r="4.7"/>
<circle class="st5" cx="378.7" cy="323.8" r="3.8"/>
<circle class="st5" cx="329.2" cy="351.6" r="3.8"/>
<circle class="st5" cx="389.4" cy="278.2" r="4.7"/>
<circle class="st5" cx="377.6" cy="239.1" r="3.8"/>
<circle class="st5" cx="389.9" cy="228.1" r="4.8"/>
<circle class="st5" cx="324.6" cy="279.8" r="3.6"/>
<circle class="st5" cx="384.5" cy="306.6" r="3.6"/>
<circle class="st5" cx="403" cy="267.2" r="4.8"/>
<circle class="st5" cx="357.7" cy="282.3" r="4.8"/>
<circle class="st5" cx="403.1" cy="218.5" r="3.5"/>
<circle class="st5" cx="342.1" cy="259.1" r="3.5"/>
<circle class="st5" cx="390.2" cy="333.8" r="3.4"/>
<circle class="st5" cx="348.3" cy="210.1" r="4.9"/>
<circle class="st5" cx="344.1" cy="227.4" r="4.9"/>
<circle class="st5" cx="340.2" cy="285" r="4.9"/>
<circle class="st5" cx="384.6" cy="212.9" r="3.4"/>
<circle class="st5" cx="324.2" cy="227.1" r="3.4"/>
<circle class="st5" cx="301.9" cy="265.3" r="3.1"/>
<circle class="st5" cx="279.1" cy="320.1" r="5"/>
<circle class="st5" cx="332.7" cy="238.4" r="2.9"/>
<circle class="st5" cx="358.7" cy="221.8" r="2.8"/>
<circle class="st5" cx="388.1" cy="262.9" r="2.8"/>
<circle class="st5" cx="378.3" cy="253.6" r="2.8"/>
<circle class="st5" cx="319.3" cy="240.3" r="2.7"/>
<circle class="st5" cx="307.7" cy="228" r="5.3"/>
<circle class="st5" cx="344.3" cy="245.1" r="2.6"/>
<circle class="st5" cx="361.8" cy="328.5" r="5.3"/>
<circle class="st5" cx="291.6" cy="256.4" r="2.5"/>
<circle class="st5" cx="313.7" cy="258.7" r="2.5"/>
<circle class="st5" cx="278.9" cy="265.9" r="5.4"/>
<circle class="st5" cx="365.1" cy="254.4" r="2.5"/>
<circle class="st5" cx="303.9" cy="246.3" r="5.4"/>
<circle class="st5" cx="327.7" cy="252.6" r="4.3"/>
<circle class="st5" cx="302.5" cy="278.7" r="2.2"/>
<circle class="st5" cx="311.9" cy="349.4" r="5.5"/>
<circle class="st5" cx="276.4" cy="247.2" r="5.5"/>
<circle class="st5" cx="289.8" cy="233.7" r="5.5"/>
<circle class="st5" cx="335" cy="270.8" r="2.2"/>
<circle class="st5" cx="366.5" cy="207.4" r="5.6"/>
<circle class="st5" cx="356.7" cy="263.9" r="2.2"/>
<circle class="st5" cx="261.3" cy="272.8" r="5.6"/>
<circle class="st5" cx="313.1" cy="272.4" r="2.1"/>
<circle class="st5" cx="343.9" cy="334.5" r="5.7"/>
<circle class="st5" cx="347.2" cy="271.7" r="2.1"/>
<circle class="st5" cx="290.5" cy="276.1" r="2.1"/>
<circle class="st5" cx="298.4" cy="318.7" r="5.7"/>
<circle class="st5" cx="413.8" cy="313.6" r="5.8"/>
<circle class="st5" cx="320.3" cy="366.9" r="5.8"/>
<circle class="st5" cx="323.6" cy="266.3" r="2"/>
<circle class="st5" cx="310.4" cy="308.5" r="2"/>
<circle class="st5" cx="407.5" cy="332.2" r="5.9"/>
<circle class="st5" cx="276.4" cy="285" r="5.9"/>
<circle class="st5" cx="367.4" cy="310.1" r="5.9"/>
<circle class="st5" cx="299.7" cy="303.1" r="1.9"/>
<circle class="st5" cx="267.4" cy="302.7" r="6"/>
<circle class="st5" cx="342.7" cy="349.9" r="1.9"/>
<circle class="st5" cx="348.8" cy="297" r="1.9"/>
<circle class="st5" cx="340.2" cy="365.7" r="6.1"/>
<circle class="st5" cx="341.3" cy="309.9" r="1.7"/>
<circle class="st5" cx="359.7" cy="238.7" r="6.2"/>
<circle class="st5" cx="358.6" cy="347.7" r="6.2"/>
<circle class="st5" cx="337" cy="299.3" r="1.7"/>
<circle class="st5" cx="360.3" cy="368.3" r="6.2"/>
<circle class="st5" cx="327.8" cy="292.7" r="1.6"/>
<circle class="st5" cx="311.8" cy="292.4" r="6.3"/>
<circle class="st5" cx="414.2" cy="251.8" r="6.3"/>
<circle class="st5" cx="406.7" cy="286" r="6.3"/>
<circle class="st5" cx="329" cy="210" r="6.4"/>
<circle class="st5" cx="391.1" cy="292.4" r="1.5"/>
<circle class="st5" cx="372.2" cy="269.7" r="6.5"/>
<circle class="st5" cx="394.1" cy="246.8" r="6.5"/>
<circle class="st5" cx="311.7" cy="334.4" r="1.5"/>
<circle class="st5" cx="352.2" cy="307.8" r="1.5"/>
<circle class="st5" cx="360" cy="296.6" r="1.4"/>
<circle class="st5" cx="375" cy="291" r="6.6"/>
<circle class="st5" cx="421.9" cy="271.6" r="6.6"/>
<circle class="st5" cx="425" cy="296.3" r="6.8"/>
<circle class="st5" cx="407.3" cy="352.8" r="6.8"/>
<circle class="st5" cx="353.4" cy="252.8" r="1.4"/>
<circle class="st5" cx="374.8" cy="356.7" r="4.4"/>
<circle class="st6" cx="593.4" cy="242.2" r="5.9"/>
<circle class="st6" cx="501.9" cy="229.8" r="1.6"/>
<circle class="st6" cx="499.6" cy="211.8" r="2"/>
<circle class="st6" cx="487.6" cy="211.6" r="2"/>
<circle class="st6" cx="525.4" cy="247" r="4.3"/>
<circle class="st6" cx="510.6" cy="274.5" r="5.4"/>
<circle class="st6" cx="559.2" cy="232.6" r="3.5"/>
<circle class="st6" cx="464.9" cy="250.1" r="2"/>
<circle class="st6" cx="473.7" cy="208.1" r="4.4"/>
<circle class="st6" cx="545.2" cy="233.3" r="2.6"/>
<circle class="st6" cx="486.1" cy="325.6" r="5.4"/>
<circle class="st6" cx="537.8" cy="310" r="4.4"/>
<circle class="st6" cx="546.7" cy="188.2" r="5.5"/>
<circle class="st6" cx="484.9" cy="263.6" r="1.2"/>
<circle class="st6" cx="524.2" cy="226.1" r="2"/>
<circle class="st6" cx="573.3" cy="271" r="4.5"/>
<circle class="st6" cx="474.1" cy="241.4" r="1.4"/>
<circle class="st6" cx="570.8" cy="251" r="5.6"/>
<circle class="st6" cx="558.1" cy="263.7" r="4.5"/>
<circle class="st6" cx="504.9" cy="255.6" r="1.2"/>
<circle class="st6" cx="576.4" cy="232.6" r="5.6"/>
<circle class="st6" cx="534.8" cy="276.6" r="1.5"/>
<circle class="st6" cx="553.1" cy="247.4" r="4.5"/>
<circle class="st6" cx="542.6" cy="205.8" r="4.5"/>
<circle class="st6" cx="524.4" cy="279.7" r="1.5"/>
<circle class="st6" cx="503" cy="316.8" r="5.7"/>
<circle class="st6" cx="539.1" cy="244" r="1.8"/>
<circle class="st6" cx="571.5" cy="302.2" r="5.7"/>
<circle class="st6" cx="552.6" cy="297.8" r="5.7"/>
<circle class="st6" cx="550.9" cy="219.8" r="3.8"/>
<circle class="st6" cx="566.4" cy="218.3" r="3.8"/>
<circle class="st6" cx="477.9" cy="276.8" r="5.7"/>
<circle class="st6" cx="486.5" cy="306.4" r="5.8"/>
<circle class="st6" cx="458.5" cy="279.9" r="5.8"/>
<circle class="st6" cx="532.2" cy="234.8" r="1.8"/>
<circle class="st6" cx="560.6" cy="201.6" r="5.8"/>
<circle class="st6" cx="536.6" cy="222.9" r="2.9"/>
<circle class="st6" cx="516.7" cy="259.5" r="2.9"/>
<circle class="st6" cx="523.8" cy="268.9" r="0.9"/>
<circle class="st6" cx="514" cy="235.6" r="3.9"/>
<circle class="st6" cx="527.3" cy="323.5" r="4.7"/>
<circle class="st6" cx="501.4" cy="294.7" r="5.3"/>
<circle class="st6" cx="460.2" cy="198.7" r="4"/>
<circle class="st6" cx="527.1" cy="194.5" r="4"/>
<circle class="st6" cx="491.7" cy="232.9" r="1.1"/>
<circle class="st6" cx="526.2" cy="211.2" r="4.8"/>
<circle class="st6" cx="452.7" cy="261" r="6"/>
<circle class="st6" cx="533.8" cy="292" r="6.1"/>
<circle class="st6" cx="519.7" cy="306.4" r="6.1"/>
<circle class="st6" cx="516.9" cy="289.6" r="3"/>
<circle class="st6" cx="554.7" cy="317.5" r="6.1"/>
<circle class="st6" cx="512.1" cy="248.4" r="1.1"/>
<circle class="st6" cx="497" cy="265.2" r="3.1"/>
<circle class="st6" cx="565.4" cy="285.5" r="4.1"/>
<circle class="st6" cx="468.1" cy="314.2" r="6.2"/>
<circle class="st6" cx="500.1" cy="243.3" r="4.1"/>
<circle class="st6" cx="485.7" cy="242.6" r="2.3"/>
<circle class="st6" cx="477.7" cy="253.5" r="3.2"/>
<circle class="st6" cx="530.9" cy="176.4" r="6.2"/>
<circle class="st6" cx="477.8" cy="226.2" r="6.3"/>
<circle class="st6" cx="457.2" cy="216.7" r="6.3"/>
<circle class="st6" cx="468.7" cy="263.6" r="2.3"/>
<circle class="st6" cx="486.5" cy="290.3" r="2.3"/>
<circle class="st6" cx="490.8" cy="253.7" r="1.9"/>
<circle class="st6" cx="511.2" cy="203.3" r="4.2"/>
<circle class="st6" cx="493.9" cy="196.5" r="6.4"/>
<circle class="st6" cx="461" cy="235.5" r="5"/>
<circle class="st6" cx="437.4" cy="222.7" r="6.4"/>
<circle class="st6" cx="455.5" cy="300.9" r="4.2"/>
<circle class="st6" cx="494.7" cy="279.5" r="3.4"/>
<circle class="st6" cx="582.5" cy="286" r="5.1"/>
<circle class="st6" cx="491.6" cy="175.7" r="6.5"/>
<circle class="st6" cx="443.8" cy="241.1" r="5.1"/>
<circle class="st6" cx="587.1" cy="260.1" r="5.1"/>
<circle class="st6" cx="493.4" cy="222" r="1.9"/>
<circle class="st6" cx="471.7" cy="294.7" r="5.2"/>
<circle class="st6" cx="475.3" cy="190.7" r="5.2"/>
<circle class="st6" cx="582.2" cy="215.8" r="4.2"/>
<circle class="st6" cx="511.4" cy="219.7" r="4.3"/>
<circle class="st6" cx="549.3" cy="279.2" r="5.3"/>
<circle class="st6" cx="511.3" cy="184.2" r="6.9"/>
<circle class="st6" cx="538.9" cy="260.7" r="6.9"/>
<text transform="matrix(1 0 0 1 329.5 148.5)" class="st7 st8">2008</text>
<text transform="matrix(1 0 0 1 329.5 42.5)" class="st7 st8">2011</text>
<text transform="matrix(1 0 0 1 14 39.5)"><tspan x="0" y="0" class="st9 st8">U.S. Chronic Disease </tspan><tspan x="0" y="24" class="st9 st8">Indicators </tspan><tspan x="0" y="48" class="st9 st8">(2008 - 2014)</tspan></text>
<text transform="matrix(1 0 0 1 243 91.5)" class="st7 st8">2012</text>
<text transform="matrix(1 0 0 1 421 94)" class="st7 st8">2010</text>
<text transform="matrix(1 0 0 1 204 283.5)" class="st7 st8">2013</text>
<text transform="matrix(1 0 0 1 506.5 162.5)" class="st7 st8">2014</text>
<rect x="16" y="102" class="st10" width="186" height="107.5"/>
<text transform="matrix(1 0 0 1 16 111.9678)"><tspan x="0" y="0" class="st7 st11">Alcohol, Arthritis, Asthma, </tspan><tspan x="0" y="18" class="st7 st11">Cancer, Cardiovascular </tspan><tspan x="0" y="36" class="st7 st11">Disease, Chronic kidney </tspan><tspan x="0" y="54" class="st7 st11">disease, Chronic Obstructive </tspan><tspan x="0" y="72" class="st7 st11">Pulmonary Disease, Diabetes, </tspan><tspan x="0" y="90" class="st7 st11">Immunization, Mental Health</tspan></text>
</svg>
