<?xml version="1.0" encoding="utf-8"?>
<!-- Generator: Adobe Illustrator 19.2.1, SVG Export Plug-In . SVG Version: 6.00 Build 0)  -->
<svg version="1.1" id="Layer_1" xmlns="http://www.w3.org/2000/svg" xmlns:xlink="http://www.w3.org/1999/xlink" x="0px" y="0px"
	 viewBox="0 0 1056 847" style="enable-background:new 0 0 1056 847;" xml:space="preserve">
<style type="text/css">
	.st0{fill:#DDDDDD;fill-opacity:0;stroke:#E6E6E5;}
	.st1{fill:#3397FF;stroke:#DDDDDD;stroke-opacity:0;}
	.st2{fill:#00CAFF;stroke:#DDDDDD;stroke-opacity:0;}
	.st3{fill:#FF66CB;stroke:#DDDDDD;stroke-opacity:0;}
	.st4{fill:#FFCA00;stroke:#DDDDDD;stroke-opacity:0;}
	.st5{fill:#CC99FF;stroke:#DDDDDD;stroke-opacity:0;}
	.st6{fill:#15A352;stroke:#DDDDDD;stroke-opacity:0;}
	.st7{fill:#66CBCB;stroke:#DDDDDD;stroke-opacity:0;}
	.st8{fill:#DB5544;stroke:#DDDDDD;stroke-opacity:0;}
	.st9{fill:#FF6600;stroke:#DDDDDD;stroke-opacity:0;}
	.st10{fill:#66CA00;stroke:#DDDDDD;stroke-opacity:0;}
	.st11{font-family:'DIN-Regular';}
	.st12{font-size:14px;}
	.st13{fill:none;}
	.st14{enable-background:new    ;}
	.st15{font-family:'DIN-Medium';}
	.st16{font-size:20px;}
</style>
<g>
	<circle class="st0" cx="632.5" cy="423.5" r="413.5"/>
	<circle class="st1" cx="709.9" cy="427.6" r="41.5"/>
	<circle class="st2" cx="699.8" cy="598.1" r="124.5"/>
	<circle class="st3" cx="688.7" cy="253.5" r="129.1"/>
	<circle class="st4" cx="499.7" cy="337.6" r="72.9"/>
	<circle class="st5" cx="438.4" cy="544.1" r="137.7"/>
	<circle class="st6" cx="603.8" cy="427.6" r="59.8"/>
	<circle class="st7" cx="787.9" cy="457.1" r="37"/>
	<circle class="st8" cx="816.9" cy="376.5" r="43.8"/>
	<circle class="st9" cx="833" cy="309" r="20.8"/>
	<circle class="st10" cx="890.2" cy="202.5" r="74"/>
</g>
<g>
	<g>
		<text transform="matrix(1 0 0 1 687.8838 432.0368)" class="st11 st12">Cancer</text>
		<text transform="matrix(1 0 0 1 672.6576 602.5171)" class="st11 st12">Diabetes</text>
		<rect x="611.7" y="245.9" class="st13" width="175.2" height="34.5"/>
		<text transform="matrix(1 0 0 1 638.0005 257.9269)" class="st14"><tspan x="0" y="0" class="st11 st12">Chronic Obstructive </tspan><tspan x="1.1" y="18" class="st11 st12">Pulmonary Disease</tspan></text>
		<rect x="443.8" y="322.1" class="st13" width="111.9" height="31.1"/>
		<text transform="matrix(1 0 0 1 453.6883 334.042)" class="st14"><tspan x="0" y="0" class="st11 st12">Chronic kidney </tspan><tspan x="22.4" y="18" class="st11 st12">disease</tspan></text>
		<text transform="matrix(1 0 0 1 365.7797 548.5292)" class="st11 st12">Cardiovascular Disease</text>
		<text transform="matrix(1 0 0 1 580.009 432.0368)" class="st11 st12">Asthma</text>
		<text transform="matrix(1 0 0 1 765 461.5015)" class="st11 st12">Alcohol</text>
		<text transform="matrix(1 0 0 1 772.2028 378.4899)" class="st11 st12">Immunization</text>
		<text transform="matrix(1 0 0 1 789.3003 313.4108)" class="st11 st12">Mental Health</text>
		<text transform="matrix(1 0 0 1 864.4515 206.9509)" class="st11 st12">Arthritis</text>
	</g>
</g>
<text transform="matrix(1 0 0 1 14.654 87.8462)"><tspan x="0" y="0" class="st15 st16">U.S. Chronic Disease </tspan><tspan x="0" y="24" class="st15 st16">Indicators </tspan><tspan x="0" y="48" class="st15 st16">(2008 - 2014)</tspan></text>
<rect x="16.7" y="150.3" class="st13" width="186" height="107.5"/>
<text transform="matrix(1 0 0 1 16.654 160.314)"><tspan x="0" y="0" class="st11 st12">Alcohol, Arthritis, Asthma, </tspan><tspan x="0" y="18" class="st11 st12">Cancer, Cardiovascular </tspan><tspan x="0" y="36" class="st11 st12">Disease, Chronic kidney </tspan><tspan x="0" y="54" class="st11 st12">disease, Chronic Obstructive </tspan><tspan x="0" y="72" class="st11 st12">Pulmonary Disease, Diabetes, </tspan><tspan x="0" y="90" class="st11 st12">Immunization, Mental Health</tspan></text>
</svg>
